<?xml version="1.0" encoding="UTF-8"?>
<svg xmlns="http://www.w3.org/2000/svg" viewBox="0 0.00 775 685" role="img" aria-label="Kabuqina chat hero — cup on gingham coaster">
  <title>Kabuqina chat hero — cup on gingham coaster</title>
  <defs>
    
    <pattern id="kabuqina_hero_scene_gingham" width="82.00" height="82.00" patternUnits="userSpaceOnUse">
      <rect width="82.00" height="82.00" fill="#faf6ff"/>
      <path d="M 0 0 H 82.00" stroke="rgba(184, 169, 201, 0.32)" stroke-width="1"/>
      <path d="M 0 0 V 82.00" stroke="rgba(184, 169, 201, 0.32)" stroke-width="1"/>
    </pattern>
    
    <linearGradient id="kabuqina_hero_scene_bodyGrad" x1="0%" y1="0%" x2="100%" y2="100%">
      <stop offset="0%" stop-color="#ffffff"/>
      <stop offset="45%" stop-color="#f5f0eb"/>
      <stop offset="100%" stop-color="#e8ddd4"/>
    </linearGradient>
    <linearGradient id="kabuqina_hero_scene_rimGrad" x1="0%" y1="0%" x2="0%" y2="100%">
      <stop offset="0%" stop-color="#ffffff"/>
      <stop offset="100%" stop-color="#f0e6dc"/>
    </linearGradient>
    <radialGradient id="kabuqina_hero_scene_latteGrad" cx="50%" cy="32%" rx="46%" ry="58%">
      <stop offset="0%" stop-color="#f5e6d0"/>
      <stop offset="35%" stop-color="#e8cfa8"/>
      <stop offset="68%" stop-color="#d4b080"/>
      <stop offset="100%" stop-color="#b8926a"/>
    </radialGradient>
  </defs>
  <g transform="translate(387.50 490.42) rotate(-10.00) scale(1 0.5592)">
    <rect x="-267.50" y="-267.50" width="535.00" height="535.00" rx="115.00"
          fill="url(#kabuqina_hero_scene_gingham)" stroke="rgba(184, 169, 201, 0.42)" stroke-width="1"/>
  </g>
  <ellipse cx="387.50" cy="635.00" rx="230.00" ry="35.00"
           fill="rgba(90, 74, 106, 0.18)"/>
  <g transform="translate(219.50 557.00) scale(4.2000) translate(0 -86)">
    <ellipse cx="50" cy="87.5" rx="33.93" ry="6.55"
             fill="rgba(73, 56, 94, 0.28)"/>
  <path d="M 68.00 41.32 C 95.30 43.48 95.30 66.52 68.00 68.68" fill="none" stroke="#c8b8d8" stroke-width="3.50"
        stroke-linecap="round"/>
  <path d="M 14.00 27.00 L 14.00 55.00 Q 14.00 86.00 45.00 86.00 L 50.50 86.00 Q 81.50 86.00 81.50 55.00 L 81.50 27.00 Z" fill="url(#kabuqina_hero_scene_bodyGrad)" stroke="#6b5580"
        stroke-opacity="0.32" stroke-width="0.35"/>
  <rect x="11.50" y="16.00" width="72.50" height="21.00" rx="10.50"
        fill="url(#kabuqina_hero_scene_rimGrad)" stroke="#6b5580" stroke-opacity="0.24"
        stroke-width="0.3"/>
  <ellipse cx="47.75" cy="34.67"
           rx="28.35" ry="5.31" fill="url(#kabuqina_hero_scene_latteGrad)"/>
  <ellipse cx="21.00" cy="66.00" rx="7.00" ry="4.00"
           fill="#c495a0" fill-opacity="0.32"/>
  <ellipse cx="56.50" cy="66.00" rx="7.00" ry="4.00"
           fill="#c495a0" fill-opacity="0.32"/>
  <circle cx="31.50" cy="55.50" r="2.50" fill="#8b7d9a"/>
  <circle cx="40.25" cy="55.50" r="2.50" fill="#8b7d9a"/>
    <g opacity="0.88">
      <ellipse cx="28" cy="8" rx="5.5" ry="13" fill="rgba(255,255,255,0.72)"/>
      <ellipse cx="52" cy="12" rx="4.5" ry="11" fill="rgba(255,255,255,0.62)"/>
      <ellipse cx="74" cy="9" rx="5" ry="12" fill="rgba(255,255,255,0.68)"/>
    </g>
  </g>
</svg>
