<?xml version="1.0" encoding="UTF-8"?>
<svg viewBox="0 0 620 548" role="img" aria-label="Kabuqina companion pill" xmlns="http://www.w3.org/2000/svg">
<title>Kabuqina companion pill</title>
<ellipse cx="310" cy="530" rx="88" ry="16" fill="#49385e" fill-opacity="0.38">
</ellipse>
<g transform="translate(0 0) scale(6.2)">
<g>
<defs>
<linearGradient id="kq-cup-_R_6_-body" x1="0%" y1="0%" x2="100%" y2="100%">
<stop offset="0%" stop-color="#ffffff">
</stop>
<stop offset="45%" stop-color="#f5f0eb">
</stop>
<stop offset="100%" stop-color="#e8ddd4">
</stop>
</linearGradient>
<linearGradient id="kq-cup-_R_6_-rim" x1="0%" y1="0%" x2="0%" y2="100%">
<stop offset="0%" stop-color="#ffffff">
</stop>
<stop offset="100%" stop-color="#f0e6dc">
</stop>
</linearGradient>
<radialGradient id="kq-cup-_R_6_-latte" cx="50%" cy="32%" rx="46%" ry="58%">
<stop offset="0%" stop-color="#f5e6d0">
</stop>
<stop offset="35%" stop-color="#e8cfa8">
</stop>
<stop offset="68%" stop-color="#d4b080">
</stop>
<stop offset="100%" stop-color="#b8926a">
</stop>
</radialGradient>
<filter id="kq-cup-_R_6_-shadow" x="-18%" y="-18%" width="136%" height="138%">
<feDropShadow dx="0" dy="2" stdDeviation="1.8" flood-color="#5a4a6a" flood-opacity="0.12">
</feDropShadow>
</filter>
<filter id="kq-cup-_R_6_-steam" x="-20%" y="-20%" width="140%" height="140%">
<feGaussianBlur stdDeviation="0.45">
</feGaussianBlur>
</filter>
</defs>

<g opacity="0.88" filter="url(#kq-cup-_R_6_-steam)">
<path d="M 31 17 C 25 9 36 5 30 -3" fill="none" stroke="#ffffff" stroke-opacity="0.66" stroke-width="5" stroke-linecap="round">
</path>
<path d="M 51 18 C 45 10 57 6 51 -2" fill="none" stroke="#ffffff" stroke-opacity="0.58" stroke-width="4.4" stroke-linecap="round">
</path>
<path d="M 69 17 C 63 9 75 5 69 -4" fill="none" stroke="#ffffff" stroke-opacity="0.62" stroke-width="4.8" stroke-linecap="round">
</path>
</g>

<g>
<path d="M 70 41.32 C 99 43.2 99 66.8 70 69.2" fill="none" stroke="#b79fcd" stroke-width="4.1" stroke-linecap="round">
</path>
<path d="M 14 27 L 14 55 Q 14 86 45 86 L 50.5 86 Q 81.5 86 81.5 55 L 81.5 27 Z" fill="url(#kq-cup-_R_6_-body)" stroke="#6b5580" stroke-opacity="0.32" stroke-width="0.35">
</path>
<rect x="11.5" y="16" width="72.5" height="21" rx="10.5" fill="url(#kq-cup-_R_6_-rim)" stroke="#6b5580" stroke-opacity="0.24" stroke-width="0.3">
</rect>
<ellipse cx="47.75" cy="34.21" rx="28.35" ry="5.31" fill="url(#kq-cup-_R_6_-latte)">
</ellipse>
<ellipse cx="21" cy="66" rx="7" ry="4" fill="#c495a0" fill-opacity="0.32">
</ellipse>
<ellipse cx="56.5" cy="66" rx="7" ry="4" fill="#c495a0" fill-opacity="0.32">
</ellipse>
<circle cx="31.5" cy="55.5" r="2.5" fill="#8b7d9a">
</circle>
<circle cx="40.25" cy="55.5" r="2.5" fill="#8b7d9a">
</circle>
</g>

</g>

</g>

</svg>

